<svg width="94" height="57" viewBox="0 0 94 57" fill="none" xmlns="http://www.w3.org/2000/svg">
<path id="Vector" d="M26.6428 20.2856C26.5408 23.596 28.1887 25.0543 28.2324 25.9877C28.2132 26.1774 28.149 26.3598 28.0449 26.5196C27.9409 26.6794 27.8002 26.812 27.6345 26.9064L25.7678 28.2189C25.5271 28.3862 25.244 28.4822 24.9512 28.496C24.8928 28.496 23.7553 28.7585 21.9616 24.7627C20.8691 26.1288 19.4783 27.2268 17.896 27.9725C16.3136 28.7182 14.5815 29.0918 12.8324 29.0647C10.4553 29.196 4.0241 27.7231 4.35951 20.8689C4.12618 15.2835 9.33243 11.8127 14.6991 12.1043C15.7345 12.1043 17.8491 12.1627 21.5533 13.0231V10.7481C21.947 6.88349 19.4095 3.8939 15.0199 4.34599C14.6699 4.34599 12.1908 4.27307 8.34076 5.81891C7.2616 6.31474 7.13035 6.22724 6.76576 6.22724C5.6866 6.22724 6.1241 3.09182 6.34285 2.69807C7.10118 1.76474 11.5783 0.014738 15.9533 0.0439047C18.8871 -0.214391 21.8049 0.691836 24.0762 2.56682C25.0008 3.59986 25.7062 4.80968 26.1499 6.12314C26.5936 7.4366 26.7662 8.8264 26.6574 10.2085V20.3147L26.6428 20.2856ZM14.0428 25.0106C18.7678 24.9377 20.7803 22.0939 21.2324 20.5627C21.597 19.0897 21.5387 18.171 21.5387 16.5668C20.1241 16.2314 18.097 15.8522 15.7637 15.8522C13.547 15.6918 9.52201 16.6689 9.68243 20.5627C9.50743 23.0127 11.3012 25.1418 14.0574 25.0106H14.0428ZM38.9658 28.3793C37.8137 28.4814 37.2887 27.6647 37.1137 26.8627L29.8512 2.84391C29.7053 2.43557 29.6178 2.01266 29.5741 1.58974C29.5596 1.50152 29.5629 1.41129 29.5838 1.32436C29.6047 1.23744 29.6428 1.15556 29.6958 1.08355C29.7488 1.01155 29.8156 0.950856 29.8924 0.90505C29.9692 0.859245 30.0543 0.829247 30.1428 0.816822C30.172 0.816822 29.8366 0.816822 33.3949 0.816822C34.6783 0.685572 35.0866 1.69182 35.2324 2.33349L40.4387 22.8668L45.2803 2.33349C45.3533 1.86682 45.7033 0.714738 47.147 0.845988H49.6553C49.9762 0.816821 51.2741 0.773072 51.5074 2.36265L56.3783 23.1585L61.7304 2.36265C61.8033 2.04182 62.1241 0.700155 63.5824 0.845988H66.4554C66.5866 0.831405 67.3595 0.729322 67.2283 2.10016C67.1699 2.37724 67.7241 0.539736 59.5283 26.8772C59.3533 27.6793 58.8283 28.496 57.6762 28.3939H54.9491C53.3595 28.5689 53.1262 26.9793 53.097 26.8189L48.2699 6.82515L43.4866 26.8043C43.4574 26.9647 43.2387 28.5397 41.6345 28.3793H38.9658ZM78.8512 29.196C77.9908 29.196 73.9074 29.1522 70.4804 27.4022C70.1403 27.258 69.8507 27.0161 69.6483 26.7071C69.4458 26.3982 69.3395 26.0362 69.3428 25.6668V24.0918C69.3428 22.8522 70.247 23.0856 70.6262 23.2314C72.0845 23.8293 73.0324 24.2668 74.8262 24.6314C80.1783 25.7252 82.5262 24.296 83.0949 23.9752C85.0199 22.8377 85.1658 20.2272 83.8678 18.871C82.3366 17.5877 81.6074 17.5439 76.1241 15.8085C75.4533 15.6189 69.7512 13.8252 69.7366 8.16682C69.6491 4.05432 73.397 -0.0290113 79.872 0.000155324C81.7241 0.000155324 86.6387 0.598072 87.9803 2.27516C88.1845 2.58141 88.272 2.94599 88.2574 3.29599V4.76891C88.2574 5.41057 88.0241 5.74599 87.5428 5.74599C86.4199 5.61474 84.422 4.11266 80.3678 4.17099C79.3616 4.11266 74.5491 4.30224 74.7679 7.81682C74.7095 10.5877 78.647 11.6231 79.0991 11.7397C84.422 13.3439 86.2012 13.6064 88.3012 16.0564C90.7949 19.3085 89.4533 23.1002 88.9428 24.1356C86.1574 29.6043 78.9678 29.1522 78.8366 29.1522L78.8512 29.196ZM84.7137 44.4939C74.5053 52.0335 59.6741 56.0585 47.0158 56.0585C29.9329 56.1698 13.4265 49.8856 0.742846 38.4418C-0.205071 37.5814 0.626179 36.4002 1.79285 37.0564C15.8647 45.1045 31.7967 49.3325 48.0074 49.321C60.1137 49.254 72.0874 46.7959 83.2408 42.0877C84.9616 41.3585 86.4199 43.2252 84.7137 44.4793V44.4939ZM88.972 39.6377C87.6595 37.9606 80.3241 38.8502 77.0428 39.2439C76.0512 39.3606 75.8908 38.5002 76.7803 37.8585C82.6283 33.746 92.2241 34.9272 93.3178 36.3127C94.4262 37.6981 93.0116 47.3085 87.5428 51.9022C86.697 52.6168 85.8949 52.2377 86.2741 51.3043C87.4991 48.1981 90.2699 41.3147 88.9574 39.6377H88.972Z" fill="#000000"/>
</svg>
