<svg width="180" height="38" viewBox="0 0 180 38" fill="none" xmlns="http://www.w3.org/2000/svg">
<g id="Nextjs-logo.svg 1" clip-path="url(#clip0_2700_4904)">
<g id="Group">
<path id="Vector" d="M0 18.8541V36.9595H3.09374H6.18748V22.7564C6.18748 14.9447 6.20857 8.55331 6.24373 8.56034C6.27186 8.56034 11.4328 14.9588 17.7187 22.7775L29.1515 36.9946L48.6069 37.0157L68.0623 37.0298V34.1118V31.1939H55.5115H42.9608V26.4126V21.6314H53.0506H63.1404V18.7486V15.8658H53.0506H42.9608V11.2252V6.58457H55.5115H68.0623V3.66661V0.74865H52.4178H36.7733V18.7205C36.7733 28.5993 36.7452 36.6712 36.7171 36.6501C36.6819 36.629 30.1569 28.5431 22.2116 18.6783L7.77654 0.74865H3.88827H0V18.8541Z" fill="#000000"/>
<path id="Vector_2" d="M75.67 0.811932C75.6841 0.854118 82.2372 9.01737 90.2317 18.9525L104.779 37.0298H108.857C112.746 37.0298 112.936 37.0228 112.837 36.9032C112.732 36.7837 98.5496 19.1494 98.4231 18.9806C98.3739 18.9244 100.568 16.147 105.609 9.87518L112.865 0.854118L108.864 0.833023C106.671 0.825993 104.836 0.833023 104.793 0.847088C104.751 0.861149 102.431 3.72286 99.6324 7.19629C96.841 10.6697 94.4856 13.5806 94.4012 13.665L94.2536 13.8267L88.9872 7.28769L83.7278 0.74865H79.6848C77.1958 0.74865 75.656 0.776775 75.67 0.811932Z" fill="#000000"/>
<path id="Vector_3" d="M119.671 3.66661V6.58457H125.999H132.327L132.341 21.7861L132.362 36.9946H135.456H138.55L138.571 21.7931L138.585 6.58457L144.793 6.57051L150.995 6.54941L151.016 3.64552L151.03 0.74865H135.351H119.671V3.66661Z" fill="#000000"/>
<path id="Vector_4" d="M173.369 21.3501C172.567 21.4416 171.829 21.6595 171.069 22.0322C170.535 22.2994 170.296 22.4681 169.874 22.897C169.009 23.7619 168.679 24.5564 168.679 25.7869C168.679 27.2212 169.234 28.1423 170.591 28.9579C171.224 29.3447 171.983 29.6189 173.601 30.0337C175.738 30.5892 176.301 30.8142 176.779 31.3134C177.102 31.6509 177.186 31.8689 177.186 32.3962C177.186 33.1345 176.786 33.711 175.984 34.1118C174.979 34.6251 173.347 34.6181 172.293 34.0978C171.611 33.7673 170.999 32.9306 170.999 32.34V32.1782H169.628H168.257V32.4032C168.257 32.804 168.461 33.5915 168.665 34.0345C169.529 35.8626 171.428 36.8188 174.205 36.8188C176.821 36.8188 178.726 35.9118 179.556 34.2665C180.119 33.1485 180.147 31.7915 179.633 30.7017C179.479 30.3782 179.254 30.0829 178.881 29.7103C177.995 28.8243 177.158 28.4376 174.944 27.8892C172.904 27.3829 172.412 27.1861 171.906 26.6798C171.604 26.3704 171.477 26.047 171.484 25.5548C171.484 24.5704 172.293 23.8603 173.622 23.6634C174.592 23.5228 175.661 23.7478 176.357 24.24C176.631 24.4369 176.961 24.9572 177.06 25.3369L177.13 25.6392H178.459H179.788V25.4775C179.788 25.3931 179.739 25.1048 179.683 24.8447C179.331 23.1712 177.854 21.8705 175.851 21.4697C175.154 21.3291 174.051 21.2728 173.369 21.3501Z" fill="#000000"/>
<path id="Vector_5" d="M163.054 26.7081C163.054 29.5839 163.026 32.1924 162.983 32.5089C162.948 32.8253 162.85 33.2471 162.765 33.437C162.435 34.2104 161.669 34.6253 160.712 34.5479C159.693 34.4635 159.018 33.8589 158.863 32.8956L158.814 32.6003H157.457H156.093V32.8956C156.1 34.2526 156.979 35.6307 158.23 36.2424C159.088 36.6643 159.665 36.7838 160.804 36.7768C162.006 36.7768 162.519 36.6713 163.398 36.2495C164.46 35.7362 165.226 34.8081 165.592 33.5846L165.754 33.0573L165.782 27.2706L165.803 21.4909H164.425H163.054V26.7081Z" fill="#000000"/>
<path id="Vector_6" d="M81.8434 29.2674C78.4614 33.4721 75.6841 36.9314 75.67 36.9666C75.6559 37.0017 77.3856 37.0299 79.713 37.0228H83.777L87.6301 32.2275C89.7465 29.5908 91.6168 27.2565 91.7856 27.0455L92.095 26.6518L90.0911 24.1627C88.9872 22.7916 88.0661 21.6596 88.0379 21.6455C88.0168 21.6385 85.2254 25.0698 81.8434 29.2674Z" fill="#000000"/>
<path id="Vector_7" d="M152.05 33.5777C151.699 33.6691 151.418 33.8449 151.15 34.1402C150.243 35.1457 151.003 36.7488 152.388 36.7488C153.042 36.7488 153.569 36.4394 153.85 35.898C154.16 35.2863 154.089 34.6605 153.661 34.1613C153.246 33.6761 152.592 33.4371 152.05 33.5777Z" fill="#000000"/>
</g>
</g>
<defs>
<clipPath id="clip0_2700_4904">
<rect width="179.999" height="36.5624" fill="#000000" transform="translate(0 0.748779)"/>
</clipPath>
</defs>
</svg>
