<svg width="70" height="70" viewBox="0 0 70 70" fill="none" xmlns="http://www.w3.org/2000/svg">
<g id="Frame" clip-path="url(#clip0_5102_1137)">
<path id="Union" fill-rule="evenodd" clip-rule="evenodd" d="M56.875 28.4375C56.875 34.7129 54.8379 40.5098 51.4062 45.2129L68.7148 62.5352C70.4238 64.2441 70.4238 67.0195 68.7148 68.7285C67.0059 70.4375 64.2305 70.4375 62.5215 68.7285L45.2129 51.4062C40.5098 54.8516 34.7129 56.875 28.4375 56.875C12.7285 56.875 0 44.1465 0 28.4375C0 12.7285 12.7285 0 28.4375 0C44.1465 0 56.875 12.7285 56.875 28.4375ZM54 28.5C54 42.5833 42.5833 54 28.5 54C14.4167 54 3 42.5833 3 28.5C3 14.4167 14.4167 3 28.5 3C42.5833 3 54 14.4167 54 28.5ZM20.4268 37.7947C19.9988 38.9837 18.6956 39.5925 17.5066 39.1645C16.3176 38.7364 15.7088 37.4332 16.1369 36.2442C17.792 31.6404 22.7383 28.6536 28.1697 28.6536C33.6011 28.6536 38.5474 31.6404 40.212 36.2537C40.6401 37.4428 40.0218 38.7459 38.8423 39.174C37.6628 39.602 36.3501 38.9837 35.9221 37.8042C35.0374 35.3596 32.0887 33.2194 28.1697 33.2194C24.2507 33.2194 21.3019 35.3596 20.4268 37.7947ZM17.5542 21.0439C17.5542 20.2366 17.8749 19.4624 18.4457 18.8915C19.0165 18.3207 19.7907 18 20.598 18C21.4053 18 22.1795 18.3207 22.7504 18.8915C23.3212 19.4624 23.6419 20.2366 23.6419 21.0439C23.6419 21.8512 23.3212 22.6254 22.7504 23.1962C22.1795 23.7671 21.4053 24.0878 20.598 24.0878C19.7907 24.0878 19.0165 23.7671 18.4457 23.1962C17.8749 22.6254 17.5542 21.8512 17.5542 21.0439ZM35.8174 18C36.6247 18 37.3989 18.3207 37.9698 18.8915C38.5406 19.4624 38.8613 20.2366 38.8613 21.0439C38.8613 21.8512 38.5406 22.6254 37.9698 23.1962C37.3989 23.7671 36.6247 24.0878 35.8174 24.0878C35.0101 24.0878 34.2359 23.7671 33.6651 23.1962C33.0942 22.6254 32.7735 21.8512 32.7735 21.0439C32.7735 20.2366 33.0942 19.4624 33.6651 18.8915C34.2359 18.3207 35.0101 18 35.8174 18Z" fill="#000000"/>
</g>
<defs>
<clipPath id="clip0_5102_1137">
<rect width="70" height="70" fill="#000000"/>
</clipPath>
</defs>
</svg>
